<svg width="24" height="24" viewBox="0 0 24 24" fill="none" xmlns="http://www.w3.org/2000/svg">
<path d="M14.8994 11.2001L10.6994 15.3001L9.09941 13.5001C8.79941 13.2001 8.29941 13.2001 7.99941 13.5001C7.69941 13.8001 7.69941 14.3001 7.99941 14.6001L10.1994 16.9001C10.2994 17.0001 10.4994 17.1001 10.6994 17.1001C10.8994 17.1001 11.0994 17.0001 11.1994 16.9001L15.8994 12.3001C16.1994 12.0001 16.1994 11.5001 15.8994 11.2001C15.5994 10.9001 15.1994 10.9001 14.8994 11.2001Z" fill="#3BEAAB"/>
<path d="M16.9998 4H16.6998V3.3C16.6998 2.9 16.3998 2.5 15.8998 2.5C15.3998 2.5 15.0998 2.8 15.0998 3.3V4H8.7998V3.3C8.7998 2.9 8.4998 2.5 7.9998 2.5C7.4998 2.5 7.2998 2.9 7.2998 3.3V4H6.9998C4.8998 4 3.2998 5.7 3.2998 7.7V17.7C3.2998 19.8 4.9998 21.5 7.0998 21.5H17.0998C19.1998 21.5 20.8998 19.8 20.8998 17.7V7.7C20.7998 5.7 19.0998 4 16.9998 4ZM6.9998 5.5H7.2998V5.8C7.2998 6.2 7.5998 6.6 8.0998 6.6C8.5998 6.6 8.8998 6.3 8.8998 5.8V5.5H15.3998V5.8C15.3998 6.2 15.6998 6.6 16.1998 6.6C16.6998 6.6 16.9998 6.3 16.9998 5.8V5.5C18.1998 5.5 19.2998 6.5 19.2998 7.8V8.5H4.7998V7.7C4.7998 6.5 5.7998 5.5 6.9998 5.5ZM16.9998 20H6.9998C5.7998 20 4.6998 19 4.6998 17.7V9.9H19.1998V17.7C19.2998 19 18.1998 20 16.9998 20Z" fill="#3BEAAB"/>
</svg>
