<svg width="24" height="24" viewBox="0 0 24 24" fill="none" xmlns="http://www.w3.org/2000/svg">
<path d="M11.5 9.2H14.2C14.6 9.2 15 8.9 15 8.4C15 7.9 14.7 7.6 14.2 7.6H12.7V6.6C12.8 6.3 12.4 6 12 6C11.6 6 11.2 6.3 11.2 6.8V7.8C10 7.9 9 8.9 9 10.2C9 11.6 10.1 12.7 11.5 12.7H12.4C13 12.7 13.4 13.2 13.4 13.7C13.4 14.3 12.9 14.7 12.4 14.7H9.8C9.4 14.7 9 15 9 15.5C9 16 9.3 16.3 9.8 16.3H11.3V17.3C11.3 17.7 11.6 18.1 12.1 18.1C12.6 18.1 12.9 17.8 12.9 17.3V16.3C14.1 16.2 15.1 15.1 15.1 13.8C15.1 12.4 14 11.3 12.6 11.3H11.7C11.1 11.3 10.7 10.8 10.7 10.3C10.7 9.8 11 9.2 11.5 9.2Z" fill="#0B4780"/>
<path d="M16.9998 3.2998H6.9998C4.8998 3.2998 3.2998 4.8998 3.2998 6.9998V16.9998C3.2998 19.0998 4.9998 20.7998 7.0998 20.7998H17.0998C19.1998 20.7998 20.8998 19.0998 20.8998 16.9998V6.9998C20.7998 4.8998 19.0998 3.2998 16.9998 3.2998ZM19.2998 16.9998C19.2998 18.1998 18.2998 19.2998 16.9998 19.2998H6.9998C5.7998 19.2998 4.6998 18.2998 4.6998 16.9998V6.9998C4.6998 5.7998 5.6998 4.6998 6.9998 4.6998H16.9998C18.1998 4.6998 19.2998 5.6998 19.2998 6.9998V16.9998Z" fill="#0B4780"/>
</svg>
