<svg width="10" height="10" viewBox="0 0 10 10" fill="none" xmlns="http://www.w3.org/2000/svg">
<path d="M6.1002 5.0002L9.2002 1.9002C9.5002 1.6002 9.5002 1.1002 9.2002 0.800195C8.9002 0.500195 8.4002 0.500195 8.1002 0.800195L5.0002 3.9002L1.9002 0.900195C1.6002 0.600195 1.1002 0.600195 0.800195 0.900195C0.500195 1.2002 0.500195 1.7002 0.800195 2.0002L3.9002 5.0002L0.800195 8.1002C0.500195 8.4002 0.500195 8.9002 0.800195 9.2002C0.900195 9.3002 1.1002 9.4002 1.3002 9.4002C1.5002 9.4002 1.7002 9.3002 1.8002 9.2002L5.0002 6.1002L8.1002 9.2002C8.2002 9.3002 8.4002 9.4002 8.6002 9.4002C8.8002 9.4002 9.0002 9.3002 9.1002 9.2002C9.4002 8.9002 9.4002 8.4002 9.1002 8.1002L6.1002 5.0002Z" fill="#0B4780"/>
</svg>
